<svg xmlns="http://www.w3.org/2000/svg" viewBox="0 0 64 64" fill="none" aria-hidden="true">
  <defs>
    <linearGradient id="ops-g" x1="10" y1="8" x2="54" y2="56" gradientUnits="userSpaceOnUse">
      <stop stop-color="#22d3ee"/>
      <stop offset="0.42" stop-color="#818cf8"/>
      <stop offset="1" stop-color="#e879f9"/>
    </linearGradient>
    <linearGradient id="ops-core" x1="26" y1="24" x2="38" y2="40" gradientUnits="userSpaceOnUse">
      <stop stop-color="#67e8f9"/>
      <stop offset="1" stop-color="#c4b5fd"/>
    </linearGradient>
    <linearGradient id="ops-panel" x1="0" y1="0" x2="64" y2="64" gradientUnits="userSpaceOnUse">
      <stop stop-color="#0f172a"/>
      <stop offset="1" stop-color="#020617"/>
    </linearGradient>
  </defs>
  <rect width="64" height="64" rx="15" fill="url(#ops-panel)"/>
  <rect width="64" height="64" rx="15" fill="none" stroke="url(#ops-g)" stroke-width="1.25" opacity="0.4"/>
  <path
    fill="none"
    stroke="url(#ops-g)"
    stroke-width="1.75"
    stroke-linecap="round"
    stroke-linejoin="round"
    opacity="0.92"
    d="M17 25L32 15l15 10M17 25l-4 16M32 15v17M47 25l4 16M13 41l19 11 19-11M32 32v20"
  />
  <circle cx="17" cy="25" r="3.25" fill="#020617" stroke="url(#ops-g)" stroke-width="1.5"/>
  <circle cx="32" cy="15" r="3.25" fill="#020617" stroke="url(#ops-g)" stroke-width="1.5"/>
  <circle cx="47" cy="25" r="3.25" fill="#020617" stroke="url(#ops-g)" stroke-width="1.5"/>
  <circle cx="13" cy="41" r="3.25" fill="#020617" stroke="url(#ops-g)" stroke-width="1.5"/>
  <circle cx="51" cy="41" r="3.25" fill="#020617" stroke="url(#ops-g)" stroke-width="1.5"/>
  <circle cx="32" cy="52" r="3.25" fill="#020617" stroke="url(#ops-g)" stroke-width="1.5"/>
  <path
    fill="url(#ops-core)"
    stroke="url(#ops-g)"
    stroke-width="1.2"
    d="M32 25.5l6.2 3.6v7.2L32 39.9l-6.2-3.6v-7.2l6.2-3.6z"
    opacity="0.95"
  />
  <circle cx="32" cy="32" r="2.2" fill="#020617" opacity="0.85"/>
</svg>
